<?xml version="1.0" encoding="UTF-8" standalone="no"?>
<svg
   xmlns:dc="http://purl.org/dc/elements/1.1/"
   xmlns:cc="http://creativecommons.org/ns#"
   xmlns:rdf="http://www.w3.org/1999/02/22-rdf-syntax-ns#"
   xmlns:svg="http://www.w3.org/2000/svg"
   xmlns="http://www.w3.org/2000/svg"
   xmlns:sodipodi="http://sodipodi.sourceforge.net/DTD/sodipodi-0.dtd"
   xmlns:inkscape="http://www.inkscape.org/namespaces/inkscape"
   width="47"
   height="47"
   viewBox="0 0 47 47"
   version="1.1"
   id="svg941"
   sodipodi:docname="icon.svg"
   style="fill:none"
   inkscape:version="0.92.4 (5da689c313, 2019-01-14)">
  <metadata
     id="metadata947">
    <rdf:RDF>
      <cc:Work
         rdf:about="">
        <dc:format>image/svg+xml</dc:format>
        <dc:type
           rdf:resource="http://purl.org/dc/dcmitype/StillImage" />
        <dc:title></dc:title>
      </cc:Work>
    </rdf:RDF>
  </metadata>
  <defs
     id="defs945" />
  <sodipodi:namedview
     pagecolor="#ffffff"
     bordercolor="#666666"
     borderopacity="1"
     objecttolerance="10"
     gridtolerance="10"
     guidetolerance="10"
     inkscape:pageopacity="0"
     inkscape:pageshadow="2"
     inkscape:window-width="1916"
     inkscape:window-height="1044"
     id="namedview943"
     showgrid="false"
     inkscape:zoom="4.6199909"
     inkscape:cx="148.30177"
     inkscape:cy="21.188603"
     inkscape:window-x="1280"
     inkscape:window-y="0"
     inkscape:window-maximized="0"
     inkscape:current-layer="svg941" />
  <path
     d="m 44.180901,2.8190693 c -3.7588,-3.75871305 -9.875,-3.75880505 -13.6338,0 l -14.0942,14.0943297 -13.6338002,13.6337 c -3.75880105,3.7588 -3.75880105,9.875 0,13.6338 3.7587099,3.7587 9.8749002,3.7589 13.6338002,0 l 13.6337,-13.6339 14.0943,-14.0942 c 3.7588,-3.7587 3.7588,-9.8748397 0,-13.6337297 z m -29.6756,39.4141297 c -2.685,2.6848 -7.0535803,2.6848 -9.7383603,0 -2.68487,-2.685 -2.68487,-7.0536 0,-9.7383 l 13.6337603,-13.6339 c 2.1382,-2.1381 5.2812,-2.5472 7.7911,-1.3696 0.0107,0.0056 0.0219,0.0099 0.0327,0.0152 1.0907,0.5188 2.0731,1.3442 2.7904,2.4263 l -2.0155,2.0155 c -0.1996,-0.4178 -0.4711,-0.8029 -0.808,-1.1397 -1.6128,-1.6129 -4.2302,-1.6129 -5.843,0 l -13.6339903,13.6338 c -1.61076,1.6109 -1.61076,4.2321 0,5.8431 1.6107501,1.6106 4.2320903,1.6108 5.8430903,0 l 7.4707,-7.4709 c 1.0267,0.3655 2.1194,0.5561 3.2416,0.5561 0.033,0 0.066,-9e-4 0.099,-0.0012 z m 9.7382,-17.5291 c -0.5369,0.5369 -1.4106,0.537 -1.9476,0 -0.5369,-0.537 -0.5369,-1.4108 0,-1.9477 0.5364,-0.5364 1.4114,-0.5363 1.9476,0 0.5364,0.5364 0.5363,1.4114 0,1.9477 z m -6.7477,6.7479 -6.8859,6.8858 c -0.537,0.537 -1.4107402,0.537 -1.9476602,0 -0.53692,-0.537 -0.53701,-1.4107 0,-1.9477 l 6.8873602,-6.8875 c 0.5473,0.7303 1.1875,1.3796 1.9462,1.9494 z m 24.7374,-16.9467 -14.0942,14.0942 c -1.3006,1.3006 -3.0298,2.0168 -4.8691,2.0168 -1.8223,0 -3.5585,-0.7063 -4.8692,-2.0169 -0.3297,-0.3297 -0.6218,-0.6886 -0.8758,-1.0719 l 2.0171,-2.0171 c 0.1966,0.4129 0.4649,0.8 0.8063,1.1413 1.6108,1.6109 4.2321,1.611 5.843,0 l 14.0944,-14.0942 c 1.6107,-1.6108 1.6107,-4.2320897 0,-5.8430397 -1.611,-1.61085 -4.2322,-1.61075 -5.8431,0 l -7.9313,7.9313397 c -1.0318,-0.3674 -2.1534,-0.5669 -3.3405,-0.5548 l 9.324,-9.3242797 c 2.6849,-2.68478 7.0536,-2.68487 9.7384,0 2.6849,2.68496 2.6849,7.0535797 0,9.7385797 z m -13.1894,1.5032 7.3462,-7.3461997 c 0.537,-0.53701 1.4107,-0.53701 1.9477,0 0.537,0.53701 0.537,1.4106997 0,1.9476997 l -7.3477,7.3477 c -0.5473,-0.7301 -1.1875,-1.3794 -1.9462,-1.9492 z"
     id="path927"
     inkscape:connector-curvature="0"
     style="fill:#07c7c1" />
  <path
     d="m 39.825501,38.337899 -3.8954,-3.8954 c -0.5377,-0.5378 -1.4098,-0.5378 -1.9476,0 -0.5379,0.5378 -0.5379,1.4098 0,1.9476 l 3.8954,3.8954 c 0.5377,0.5379 1.4099,0.5379 1.9476,0 0.5379,-0.5378 0.5379,-1.4098 0,-1.9476 z"
     id="path929"
     inkscape:connector-curvature="0"
     style="fill:#f56059" />
  <path
     d="m 43.181601,30.214899 -5.843,-1.9478 c -0.722,-0.2405 -1.5016,0.1495 -1.7422,0.8711 -0.2405,0.7216 0.1494,1.5015 0.871,1.7421 l 5.8431,1.9477 c 0.7219,0.2405 1.5016,-0.1497 1.7421,-0.8711 0.2406,-0.7216 -0.1495,-1.5015 -0.871,-1.742 z"
     id="path931"
     inkscape:connector-curvature="0"
     style="fill:#f56059" />
  <path
     d="m 32.366201,42.771299 -1.9476,-5.843 c -0.2406,-0.7215 -1.0202,-1.1117 -1.7422,-0.871 -0.7216,0.2406 -1.1114,1.0204 -0.871,1.7421 l 1.9476,5.8431 c 0.2408,0.7224 1.0215,1.1113 1.7421,0.8709 0.7217,-0.2405 1.1116,-1.0204 0.8711,-1.7421 z"
     id="path933"
     inkscape:connector-curvature="0"
     style="fill:#f56059" />
  <path
     d="M 12.558901,11.069999 8.6635308,7.1745593 c -0.53774,-0.53784 -1.4098101,-0.53784 -1.9476501,0 -0.53784,0.53784 -0.53784,1.40981 0,1.94765 l 3.8954203,3.8953897 c 0.5377,0.5378 1.4099,0.5378 1.9476,0 0.5379,-0.5377 0.5379,-1.4097 0,-1.9476 z"
     id="path935"
     inkscape:connector-curvature="0"
     style="fill:#f56059" />
  <path
     d="m 18.732501,9.6610293 -1.9477,-5.84304 c -0.2405,-0.72144 -1.0203,-1.11166 -1.7422,-0.87097 -0.7216,0.2406 -1.1114,1.02041 -0.871,1.74212 l 1.9477,5.8430597 c 0.2409,0.7224 1.0215,1.1113 1.7422,0.871 0.7215,-0.2406 1.1114,-1.0206 0.871,-1.7421697 z"
     id="path937"
     inkscape:connector-curvature="0"
     style="fill:#f56059" />
  <path
     d="m 10.072201,16.580699 -5.8430203,-1.9478 c -0.7219799,-0.2405 -1.5015199,0.1495 -1.7421199,0.8711 -0.2405,0.7217 0.14936,1.5016 0.87097,1.7422 l 5.84305,1.9477 c 0.14449,0.0481 0.29136,0.0709 0.43576,0.0709 0.5765602,0 1.1139602,-0.365 1.3063602,-0.942 0.2406,-0.7216 -0.1494,-1.5015 -0.871,-1.7421 z"
     id="path939"
     inkscape:connector-curvature="0"
     style="fill:#f56059" />
</svg>
