<svg width="208" height="47" viewBox="0 0 208 47" fill="none" xmlns="http://www.w3.org/2000/svg">
<path d="M66.7891 5.22251H71.2132V33.875H79.3176V37.0586H66.7891V5.22251Z" fill="#F56059"/>
<path d="M82.2721 6.55884H86.4613V10.9609H82.2721V6.55884ZM82.2721 14.341H86.4613V37.0586H82.2721V14.341Z" fill="#F56059"/>
<path d="M90.9448 14.341H95.134V16.5813C96.935 14.8781 98.7751 14.0266 100.654 14.0266C101.881 14.0266 102.756 14.472 103.278 15.3629C103.8 16.2538 104.061 17.3543 104.061 18.6644V37.0586H99.8714V19.8828C99.8714 19.0181 99.7409 18.3762 99.4799 17.9569C99.2188 17.5377 98.749 17.3281 98.0704 17.3281C97.2352 17.3281 96.2564 17.7997 95.134 18.743V37.0586H90.9448V14.341Z" fill="#F56059"/>
<path d="M108.228 5.18321H112.418V24.1669L118.525 14.341H122.91L117.586 23.2236L122.754 37.0586H118.565L114.336 25.4247L112.418 28.3331V37.0193H108.228V5.18321Z" fill="#F56059"/>
<path d="M132.765 37.4123C130.103 37.4123 128.067 36.5869 126.658 34.9362C125.274 33.2854 124.504 31.0189 124.348 28.1366L128.263 27.0754C128.393 29.1192 128.785 30.77 129.437 32.0277C130.116 33.2854 131.225 33.9143 132.765 33.9143C133.914 33.9143 134.775 33.5998 135.349 32.971C135.95 32.3159 136.25 31.3857 136.25 30.1804C136.25 28.8703 135.976 27.7829 135.428 26.9182C134.879 26.0535 134.005 25.0971 132.804 24.049L127.48 19.3326C126.41 18.3893 125.627 17.3805 125.131 16.3062C124.661 15.2057 124.426 13.8693 124.426 12.2972C124.426 9.96517 125.092 8.1572 126.423 6.87327C127.754 5.58935 129.568 4.94739 131.865 4.94739C134.37 4.94739 136.263 5.61555 137.542 6.95188C138.821 8.28821 139.591 10.3582 139.852 13.1619L136.093 14.1838C135.963 12.3234 135.597 10.8954 134.997 9.89966C134.423 8.87776 133.379 8.36682 131.865 8.36682C130.742 8.36682 129.881 8.66815 129.281 9.2708C128.68 9.84726 128.38 10.7119 128.38 11.8649C128.38 12.8081 128.537 13.6073 128.85 14.2624C129.163 14.8912 129.698 15.5332 130.455 16.1883L135.819 20.9047C137.202 22.1362 138.299 23.4726 139.108 24.9137C139.943 26.3548 140.361 27.9925 140.361 29.8267C140.361 32.1587 139.656 34.006 138.247 35.3685C136.837 36.731 135.01 37.4123 132.765 37.4123Z" fill="#F56059"/>
<path d="M152.367 35.6043C151.271 36.7834 150.057 37.373 148.726 37.373C146.768 37.373 145.333 36.6655 144.419 35.2506C143.506 33.8095 143.049 31.4381 143.049 28.1366V23.7346C143.049 20.7213 143.44 18.35 144.223 16.6206C145.032 14.8912 146.494 14.0266 148.608 14.0266C149.939 14.0266 151.192 14.6161 152.367 15.7952V14.341H156.556V44.5263H152.367V35.6043ZM149.783 34.0715C150.67 34.0715 151.532 33.7833 152.367 33.2068V18.3107C151.401 17.6556 150.514 17.3281 149.705 17.3281C148.06 17.3281 147.238 18.9133 147.238 22.0838V28.4903C147.238 30.3245 147.408 31.7133 147.747 32.6565C148.086 33.5998 148.765 34.0715 149.783 34.0715Z" fill="#F56059"/>
<path d="M164.048 37.373C162.821 37.373 161.947 36.9276 161.425 36.0367C160.903 35.1458 160.642 34.0453 160.642 32.7352V14.341H164.831V31.4774C164.831 32.3421 164.962 32.9972 165.223 33.4426C165.484 33.8619 165.954 34.0715 166.632 34.0715C167.467 34.0715 168.446 33.5998 169.569 32.6565V14.341H173.758V37.0586H169.569V34.8183C167.768 36.5214 165.927 37.373 164.048 37.373Z" fill="#F56059"/>
<path d="M182.114 37.373C181.253 37.373 180.47 37.1241 179.765 36.6262C179.086 36.1284 178.551 35.4733 178.16 34.661C177.768 33.8488 177.572 32.9972 177.572 32.1063C177.572 30.3245 177.951 28.8834 178.708 27.7829C179.465 26.6562 180.43 25.7653 181.605 25.1102C182.78 24.4552 184.411 23.7084 186.499 22.8699V21.2585C186.499 19.7649 186.342 18.7168 186.029 18.1142C185.742 17.4853 185.142 17.1709 184.228 17.1709C182.636 17.1709 181.84 18.2452 181.84 20.3938V21.5336L177.69 21.3764C177.742 18.8609 178.316 17.0136 179.412 15.8345C180.509 14.6292 182.205 14.0266 184.502 14.0266C186.669 14.0266 188.235 14.6292 189.2 15.8345C190.192 17.0136 190.688 18.8085 190.688 21.2191V31.5953C190.688 33.2985 190.819 35.1196 191.08 37.0586H187.243C186.956 35.565 186.773 34.4514 186.695 33.7178C186.381 34.7396 185.833 35.6043 185.05 36.3118C184.293 37.0193 183.315 37.373 182.114 37.373ZM183.758 33.7571C184.306 33.7571 184.841 33.5474 185.364 33.1282C185.886 32.6827 186.264 32.2635 186.499 31.8705V25.4247C185.377 26.0535 184.502 26.6038 183.876 27.0754C183.275 27.5209 182.766 28.0449 182.349 28.6476C181.957 29.2502 181.762 29.9708 181.762 30.8093C181.762 31.7526 181.931 32.4862 182.271 33.0103C182.61 33.5081 183.106 33.7571 183.758 33.7571Z" fill="#F56059"/>
<path d="M199.959 37.373C198.001 37.373 196.565 36.6655 195.652 35.2506C194.738 33.8095 194.282 31.4381 194.282 28.1366V23.7346C194.282 20.7213 194.673 18.35 195.456 16.6206C196.265 14.8912 197.727 14.0266 199.841 14.0266C201.172 14.0266 202.425 14.6161 203.6 15.7952V5.22251H207.789V37.0586H203.6V35.6043C202.503 36.7834 201.29 37.373 199.959 37.373ZM201.016 34.0715C201.851 34.0715 202.712 33.7833 203.6 33.2068V18.3107C202.634 17.6556 201.746 17.3281 200.937 17.3281C199.293 17.3281 198.471 18.9133 198.471 22.0838V28.4903C198.471 30.3245 198.64 31.7133 198.98 32.6565C199.319 33.5998 199.998 34.0715 201.016 34.0715Z" fill="#F56059"/>
<path d="M44.1809 2.81907C40.4221 -0.939643 34.3059 -0.939735 30.5471 2.81907L16.4529 16.9134L2.8191 30.5471C-0.939701 34.3059 -0.939701 40.4221 2.8191 44.1809C6.57781 47.9396 12.694 47.9398 16.4529 44.1809L30.0866 30.547L44.1809 16.4528C47.9397 12.6941 47.9397 6.57796 44.1809 2.81907ZM14.5053 42.2332C11.8203 44.918 7.45172 44.918 4.76694 42.2332C2.08207 39.5482 2.08207 35.1796 4.76694 32.4949L18.4007 18.861C20.5389 16.7229 23.6819 16.3138 26.1918 17.4914C26.2025 17.497 26.2137 17.5013 26.2245 17.5066C27.3152 18.0254 28.2976 18.8508 29.0149 19.9329L26.9994 21.9484C26.7998 21.5306 26.5283 21.1455 26.1914 20.8087C24.5786 19.1958 21.9612 19.1958 20.3484 20.8087L6.71441 34.4425C5.10365 36.0534 5.10365 38.6746 6.71441 40.2856C8.32516 41.8962 10.9465 41.8964 12.5575 40.2856L20.0282 32.8147C21.0549 33.1802 22.1476 33.3708 23.2698 33.3708C23.3028 33.3708 23.3358 33.3699 23.3688 33.3696L14.5053 42.2332ZM24.2435 24.7041C23.7066 25.241 22.8329 25.2411 22.2959 24.7041C21.759 24.1671 21.759 23.2933 22.2959 22.7564C22.8323 22.22 23.7073 22.2201 24.2435 22.7564C24.7799 23.2928 24.7798 24.1678 24.2435 24.7041ZM17.4958 31.452L10.6099 38.3378C10.0729 38.8748 9.19916 38.8748 8.66224 38.3378C8.12532 37.8008 8.12523 36.9271 8.66224 36.3901L15.5496 29.5026C16.0969 30.2329 16.7371 30.8822 17.4958 31.452ZM42.2332 14.5053L28.139 28.5995C26.8384 29.9001 25.1092 30.6163 23.2699 30.6163C21.4476 30.6163 19.7114 29.91 18.4007 28.5994C18.071 28.2697 17.7789 27.9108 17.5249 27.5275L19.542 25.5104C19.7386 25.9233 20.0069 26.3104 20.3483 26.6517C21.9591 28.2626 24.5804 28.2627 26.1913 26.6517L40.2857 12.5575C41.8964 10.9467 41.8964 8.32541 40.2857 6.71446C38.6747 5.10361 36.0535 5.10371 34.4426 6.71446L26.5113 14.6458C25.4795 14.2784 24.3579 14.0789 23.1708 14.091L32.4948 4.76672C35.1797 2.08194 39.5484 2.08185 42.2332 4.76672C44.9181 7.45168 44.9181 11.8203 42.2332 14.5053ZM29.0438 16.0085L36.39 8.6623C36.927 8.12529 37.8007 8.12529 38.3377 8.6623C38.8747 9.19931 38.8747 10.073 38.3377 10.61L30.99 17.9577C30.4427 17.2276 29.8025 16.5783 29.0438 16.0085Z" fill="#07C7C1"/>
<path d="M39.8255 38.3379L35.9301 34.4425C35.3924 33.9047 34.5203 33.9047 33.9825 34.4425C33.4446 34.9803 33.4446 35.8523 33.9825 36.3901L37.8779 40.2855C38.4156 40.8234 39.2878 40.8234 39.8255 40.2855C40.3634 39.7477 40.3634 38.8757 39.8255 38.3379Z" fill="#F56059"/>
<path d="M43.1816 30.2149L37.3386 28.2671C36.6166 28.0266 35.837 28.4166 35.5964 29.1382C35.3559 29.8598 35.7458 30.6397 36.4674 30.8803L42.3105 32.828C43.0324 33.0685 43.8121 32.6783 44.0526 31.9569C44.2932 31.2353 43.9031 30.4554 43.1816 30.2149Z" fill="#F56059"/>
<path d="M32.3662 42.7713L30.4186 36.9283C30.178 36.2068 29.3984 35.8166 28.6764 36.0573C27.9548 36.2979 27.565 37.0777 27.8054 37.7994L29.753 43.6425C29.9938 44.3649 30.7745 44.7538 31.4951 44.5134C32.2168 44.2729 32.6067 43.493 32.3662 42.7713Z" fill="#F56059"/>
<path d="M12.5589 11.07L8.66353 7.17456C8.12579 6.63672 7.25372 6.63672 6.71588 7.17456C6.17804 7.7124 6.17804 8.58437 6.71588 9.12221L10.6113 13.0176C11.149 13.5554 12.0212 13.5554 12.5589 13.0176C13.0968 12.4799 13.0968 11.6079 12.5589 11.07Z" fill="#F56059"/>
<path d="M18.7325 9.66103L16.7848 3.81799C16.5443 3.09655 15.7645 2.70633 15.0426 2.94702C14.321 3.18762 13.9312 3.96743 14.1716 4.68914L16.1193 10.5322C16.3602 11.2546 17.1408 11.6435 17.8615 11.4032C18.583 11.1626 18.9729 10.3826 18.7325 9.66103Z" fill="#F56059"/>
<path d="M10.0722 16.5807L4.22918 14.6329C3.5072 14.3924 2.72766 14.7824 2.48706 15.504C2.24656 16.2257 2.63642 17.0056 3.35803 17.2462L9.20108 19.1939C9.34557 19.242 9.49244 19.2648 9.63684 19.2648C10.2134 19.2648 10.7508 18.8998 10.9432 18.3228C11.1838 17.6012 10.7938 16.8213 10.0722 16.5807Z" fill="#F56059"/>
</svg>
